<mxfile host="app.diagrams.net" modified="2024-01-10T14:31:26.306Z" agent="Mozilla/5.0 (Windows NT 10.0; Win64; x64) AppleWebKit/537.36 (KHTML, like Gecko) Chrome/120.0.0.0 Safari/537.36" version="22.1.18" etag="wvnKCgrmEW1x4rcuat7e" type="github">
  <diagram name="Page-1" id="WMQzPXsxCkzm_784iydQ">
    <mxGraphModel>
      <root>
        <mxCell id="0" />
        <mxCell id="1" parent="0" />
      </root>
    </mxGraphModel>
  </diagram>
</mxfile>
